<svg width="266" height="24" viewBox="0 0 266 24" fill="none" xmlns="http://www.w3.org/2000/svg">
<path d="M3.98091 3.73478V10.6847H11.9722V14.1759H3.98091V23.7402H0V0.25981H13.4466V3.73478H3.98091Z" fill="#FEFCFD"/>
<path d="M23.1455 11.4317C23.8925 11.4317 24.5412 11.3288 25.0917 11.1231C25.652 10.9175 26.109 10.636 26.4629 10.2788C26.8266 9.91069 27.0969 9.47767 27.2738 8.9797C27.4507 8.48173 27.5392 7.93505 27.5392 7.33965C27.5392 6.14885 27.1804 5.2341 26.4629 4.5954C25.7552 3.9567 24.669 3.63735 23.2044 3.63735H20.6685V11.4317H23.1455ZM33.3484 23.7402H29.7656C29.0873 23.7402 28.5959 23.4479 28.2912 22.8633L23.809 15.3451C23.6419 15.0636 23.4551 14.8633 23.2487 14.7442C23.0521 14.6252 22.7572 14.5656 22.364 14.5656H20.6685V23.7402H16.7023V0.25981H23.2044C24.6494 0.25981 25.8879 0.427603 26.92 0.763192C27.9619 1.08795 28.8121 1.54804 29.4707 2.14344C30.1391 2.73884 30.6306 3.45331 30.9451 4.28687C31.2596 5.10961 31.4169 6.01894 31.4169 7.01488C31.4169 7.80514 31.3088 8.5521 31.0925 9.25575C30.8861 9.9594 30.5814 10.5981 30.1784 11.1719C29.7852 11.7456 29.2938 12.249 28.704 12.682C28.1241 13.115 27.4606 13.456 26.7135 13.705C26.9691 13.8674 27.205 14.0622 27.4213 14.2896C27.6375 14.5061 27.8341 14.7659 28.011 15.069L33.3484 23.7402Z" fill="#FEFCFD"/>
<path d="M39.6317 3.73478V10.2463H45.4115C46.3397 10.2463 47.0922 10.9987 47.0922 11.9269V11.9269C47.0922 12.8551 46.3397 13.6076 45.4115 13.6076H39.6317V20.249H49.0974V23.7402H35.6508V0.25981H49.0974V3.73478H39.6317Z" fill="#FEFCFD"/>
<path d="M52.945 3.73478V10.2463H58.7248C59.653 10.2463 60.4055 10.9987 60.4055 11.9269V11.9269C60.4055 12.8551 59.653 13.6076 58.7248 13.6076H52.945V20.249H62.4107V23.7402H48.9641V0.25981H62.4107V3.73478H52.945Z" fill="#FEFCFD"/>
<path d="M79.8136 20.1353V23.7402H67.3254V0.25981H71.2915V20.1353H79.8136Z" fill="#FEFCFD"/>
<path d="M93.9099 14.8742L91.3149 7.0636C91.1872 6.71719 91.0545 6.30582 90.9168 5.8295C90.7792 5.35318 90.6416 4.83897 90.504 4.28687C90.3762 4.83897 90.2435 5.35859 90.1059 5.84574C89.9683 6.32206 89.8356 6.73883 89.7078 7.09607L87.1276 14.8742H93.9099ZM100.913 23.7402H97.8466C97.5025 23.7402 97.2224 23.6482 97.0062 23.4641C96.7899 23.2693 96.6277 23.0311 96.5196 22.7497L94.9272 17.9594H86.0955L84.5032 22.7497C84.4245 22.9986 84.2722 23.226 84.0461 23.4317C83.82 23.6373 83.5399 23.7402 83.2057 23.7402H80.1094L88.4988 0.25981H92.5387L100.913 23.7402Z" fill="#FEFCFD"/>
<path d="M121.093 0.25981V23.7402H119.059C118.744 23.7402 118.479 23.6861 118.262 23.5778C118.056 23.4587 117.854 23.2639 117.658 22.9932L106.526 7.33965C106.585 8.05413 106.614 8.71448 106.614 9.3207V23.7402H103.12V0.25981H105.199C105.366 0.25981 105.509 0.270634 105.627 0.292285C105.754 0.303111 105.863 0.335588 105.951 0.389715C106.049 0.433017 106.143 0.503383 106.231 0.600811C106.32 0.687415 106.418 0.806494 106.526 0.95805L117.702 16.6766C117.673 16.2977 117.648 15.9242 117.628 15.5562C117.609 15.1881 117.599 14.8471 117.599 14.5332V0.25981H121.093Z" fill="#FEFCFD"/>
<path d="M140.482 18.203C140.698 18.203 140.89 18.295 141.057 18.479L142.62 20.3464C141.755 21.5264 140.688 22.4303 139.42 23.0582C138.162 23.6861 136.648 24 134.879 24C133.297 24 131.871 23.7023 130.603 23.1069C129.345 22.5115 128.269 21.6834 127.374 20.6225C126.48 19.5616 125.792 18.295 125.31 16.8227C124.838 15.3505 124.603 13.7429 124.603 12C124.603 10.2355 124.858 8.62246 125.369 7.16103C125.88 5.68877 126.598 4.42219 127.522 3.3613C128.456 2.3004 129.566 1.47767 130.854 0.893098C132.142 0.2977 133.567 0 135.13 0C136.683 0 138.059 0.281461 139.258 0.844383C140.467 1.40731 141.494 2.14344 142.34 3.05277L141.013 5.08254C140.934 5.21245 140.831 5.32612 140.703 5.42354C140.585 5.52097 140.418 5.56969 140.202 5.56969C140.054 5.56969 139.902 5.52639 139.745 5.43978C139.587 5.34235 139.415 5.22869 139.229 5.09878C139.042 4.95805 138.826 4.80649 138.58 4.64411C138.334 4.48173 138.049 4.33559 137.725 4.20568C137.4 4.06495 137.022 3.95128 136.589 3.86468C136.167 3.76725 135.675 3.71854 135.115 3.71854C134.162 3.71854 133.287 3.90798 132.491 4.28687C131.704 4.65494 131.026 5.19621 130.456 5.91069C129.886 6.61434 129.443 7.48038 129.129 8.50879C128.814 9.52639 128.657 10.6901 128.657 12C128.657 13.3207 128.824 14.4953 129.158 15.5237C129.502 16.5521 129.964 17.4181 130.544 18.1218C131.124 18.8254 131.807 19.3667 132.594 19.7456C133.38 20.1137 134.226 20.2977 135.13 20.2977C135.67 20.2977 136.157 20.2652 136.589 20.2003C137.032 20.1353 137.435 20.0325 137.798 19.8917C138.172 19.751 138.521 19.5724 138.845 19.3559C139.18 19.1286 139.509 18.8525 139.833 18.5277C139.931 18.4303 140.035 18.3545 140.143 18.3004C140.251 18.2355 140.364 18.203 140.482 18.203Z" fill="#FEFCFD"/>
<path d="M149.318 3.73478V10.2463H156.778V13.6076H149.318V20.249H158.783V23.7402H145.337V0.25981H158.783V3.73478H149.318Z" fill="#FEFCFD"/>
<path d="M179.754 14.8742L177.159 7.0636C177.031 6.71719 176.899 6.30582 176.761 5.8295C176.623 5.35318 176.486 4.83897 176.348 4.28687C176.22 4.83897 176.088 5.35859 175.95 5.84574C175.812 6.32206 175.68 6.73883 175.552 7.09607L172.972 14.8742H179.754ZM186.757 23.7402H183.691C183.347 23.7402 183.066 23.6482 182.85 23.4641C182.634 23.2693 182.472 23.0311 182.364 22.7497L180.771 17.9594H171.94L170.347 22.7497C170.269 22.9986 170.116 23.226 169.89 23.4317C169.664 23.6373 169.384 23.7402 169.05 23.7402H165.953L174.343 0.25981H178.383L186.757 23.7402Z" fill="#FEFCFD"/>
<path d="M207.896 12C207.896 13.7212 207.635 15.3018 207.114 16.7415C206.593 18.1813 205.861 19.4208 204.917 20.4601C203.974 21.4993 202.838 22.3058 201.511 22.8796C200.184 23.4533 198.71 23.7402 197.088 23.7402H188.964V0.25981H197.088C198.71 0.25981 200.184 0.552096 201.511 1.13667C202.838 1.71042 203.974 2.51691 204.917 3.55616C205.861 4.58457 206.593 5.81867 207.114 7.25846C207.635 8.69824 207.896 10.2788 207.896 12ZM203.826 12C203.826 10.7118 203.669 9.55886 203.354 8.54127C203.05 7.51286 202.602 6.64682 202.013 5.94317C201.433 5.22869 200.725 4.682 199.89 4.30311C199.064 3.92422 198.13 3.73478 197.088 3.73478H192.945V20.2652H197.088C198.13 20.2652 199.064 20.0758 199.89 19.6969C200.725 19.318 201.433 18.7767 202.013 18.0731C202.602 17.3586 203.05 16.4926 203.354 15.475C203.669 14.4465 203.826 13.2882 203.826 12Z" fill="#FEFCFD"/>
<path d="M234.516 0.25981V23.7402H231.021V8.57375C231.021 7.96752 231.051 7.31258 231.11 6.60893L224.667 19.9405C224.362 20.5792 223.895 20.8985 223.266 20.8985H222.706C222.077 20.8985 221.61 20.5792 221.305 19.9405L214.788 6.56022C214.818 6.91745 214.842 7.26928 214.862 7.6157C214.882 7.96211 214.891 8.28146 214.891 8.57375V23.7402H211.397V0.25981H214.39C214.567 0.25981 214.719 0.265222 214.847 0.276048C214.975 0.286873 215.088 0.313936 215.186 0.357238C215.294 0.40054 215.388 0.470905 215.466 0.568335C215.555 0.665763 215.638 0.795668 215.717 0.95805L222.101 13.9973C222.268 14.3437 222.421 14.7009 222.558 15.069C222.706 15.4371 222.848 15.816 222.986 16.2057C223.124 15.8051 223.266 15.4208 223.414 15.0528C223.561 14.6739 223.718 14.3112 223.885 13.9648L230.181 0.95805C230.26 0.795668 230.343 0.665763 230.432 0.568335C230.52 0.470905 230.614 0.40054 230.712 0.357238C230.82 0.313936 230.938 0.286873 231.066 0.276048C231.194 0.265222 231.346 0.25981 231.523 0.25981H234.516Z" fill="#FEFCFD"/>
<path d="M243.254 23.7402H239.273V0.25981H243.254V23.7402Z" fill="#FEFCFD"/>
<path d="M266 0.25981V23.7402H263.965C263.651 23.7402 263.385 23.6861 263.169 23.5778C262.963 23.4587 262.761 23.2639 262.565 22.9932L251.433 7.33965C251.492 8.05413 251.521 8.71448 251.521 9.3207V23.7402H248.027V0.25981H250.106C250.273 0.25981 250.415 0.270634 250.533 0.292285C250.661 0.303111 250.769 0.335588 250.858 0.389715C250.956 0.433017 251.05 0.503383 251.138 0.600811C251.226 0.687415 251.325 0.806494 251.433 0.95805L262.609 16.6766C262.579 16.2977 262.555 15.9242 262.535 15.5562C262.515 15.1881 262.506 14.8471 262.506 14.5332V0.25981H266Z" fill="#FEFCFD"/>
</svg>
