<svg width="268" height="26" viewBox="0 0 268 26" fill="none" xmlns="http://www.w3.org/2000/svg">
<mask id="path-1-outside-1_801_2074" maskUnits="userSpaceOnUse" x="0" y="0" width="268" height="26" fill="black">
<rect fill="white" width="268" height="26"/>
<path d="M4.98091 4.73478V11.6847H12.9722V15.1759H4.98091V24.7402H1V1.25981H14.4466V4.73478H4.98091Z"/>
<path d="M24.1455 12.4317C24.8925 12.4317 25.5412 12.3288 26.0917 12.1231C26.652 11.9175 27.109 11.636 27.4629 11.2788C27.8266 10.9107 28.0969 10.4777 28.2738 9.9797C28.4507 9.48173 28.5392 8.93505 28.5392 8.33965C28.5392 7.14885 28.1804 6.2341 27.4629 5.5954C26.7552 4.9567 25.669 4.63735 24.2044 4.63735H21.6685V12.4317H24.1455ZM34.3484 24.7402H30.7656C30.0873 24.7402 29.5959 24.4479 29.2912 23.8633L24.809 16.3451C24.6419 16.0636 24.4551 15.8633 24.2487 15.7442C24.0521 15.6252 23.7572 15.5656 23.364 15.5656H21.6685V24.7402H17.7023V1.25981H24.2044C25.6494 1.25981 26.8879 1.4276 27.92 1.76319C28.9619 2.08795 29.8121 2.54804 30.4707 3.14344C31.1391 3.73884 31.6306 4.45331 31.9451 5.28687C32.2596 6.10961 32.4169 7.01894 32.4169 8.01488C32.4169 8.80514 32.3088 9.5521 32.0925 10.2558C31.8861 10.9594 31.5814 11.5981 31.1784 12.1719C30.7852 12.7456 30.2938 13.249 29.704 13.682C29.1241 14.115 28.4606 14.456 27.7135 14.705C27.9691 14.8674 28.205 15.0622 28.4213 15.2896C28.6375 15.5061 28.8341 15.7659 29.011 16.069L34.3484 24.7402Z"/>
<path d="M40.6317 4.73478V11.2463H46.4115C47.3397 11.2463 48.0922 11.9987 48.0922 12.9269V12.9269C48.0922 13.8551 47.3397 14.6076 46.4115 14.6076H40.6317V21.249H50.0974V24.7402H36.6508V1.25981H50.0974V4.73478H40.6317Z"/>
<path d="M53.945 4.73478V11.2463H59.7248C60.653 11.2463 61.4055 11.9987 61.4055 12.9269V12.9269C61.4055 13.8551 60.653 14.6076 59.7248 14.6076H53.945V21.249H63.4107V24.7402H49.9641V1.25981H63.4107V4.73478H53.945Z"/>
<path d="M80.8136 21.1353V24.7402H68.3254V1.25981H72.2915V21.1353H80.8136Z"/>
<path d="M94.9099 15.8742L92.3149 8.0636C92.1872 7.71719 92.0545 7.30582 91.9168 6.8295C91.7792 6.35318 91.6416 5.83897 91.504 5.28687C91.3762 5.83897 91.2435 6.35859 91.1059 6.84574C90.9683 7.32206 90.8356 7.73883 90.7078 8.09607L88.1276 15.8742H94.9099ZM101.913 24.7402H98.8466C98.5025 24.7402 98.2224 24.6482 98.0062 24.4641C97.7899 24.2693 97.6277 24.0311 97.5196 23.7497L95.9272 18.9594H87.0955L85.5032 23.7497C85.4245 23.9986 85.2722 24.226 85.0461 24.4317C84.82 24.6373 84.5399 24.7402 84.2057 24.7402H81.1094L89.4988 1.25981H93.5387L101.913 24.7402Z"/>
<path d="M122.093 1.25981V24.7402H120.059C119.744 24.7402 119.479 24.6861 119.262 24.5778C119.056 24.4587 118.854 24.2639 118.658 23.9932L107.526 8.33965C107.585 9.05413 107.614 9.71448 107.614 10.3207V24.7402H104.12V1.25981H106.199C106.366 1.25981 106.509 1.27063 106.627 1.29228C106.754 1.30311 106.863 1.33559 106.951 1.38971C107.049 1.43302 107.143 1.50338 107.231 1.60081C107.32 1.68742 107.418 1.80649 107.526 1.95805L118.702 17.6766C118.673 17.2977 118.648 16.9242 118.628 16.5562C118.609 16.1881 118.599 15.8471 118.599 15.5332V1.25981H122.093Z"/>
<path d="M141.482 19.203C141.698 19.203 141.89 19.295 142.057 19.479L143.62 21.3464C142.755 22.5264 141.688 23.4303 140.42 24.0582C139.162 24.6861 137.648 25 135.879 25C134.297 25 132.871 24.7023 131.603 24.1069C130.345 23.5115 129.269 22.6834 128.374 21.6225C127.48 20.5616 126.792 19.295 126.31 17.8227C125.838 16.3505 125.603 14.7429 125.603 13C125.603 11.2355 125.858 9.62246 126.369 8.16103C126.88 6.68877 127.598 5.42219 128.522 4.3613C129.456 3.3004 130.566 2.47767 131.854 1.8931C133.142 1.2977 134.567 1 136.13 1C137.683 1 139.059 1.28146 140.258 1.84438C141.467 2.40731 142.494 3.14344 143.34 4.05277L142.013 6.08254C141.934 6.21245 141.831 6.32612 141.703 6.42354C141.585 6.52097 141.418 6.56969 141.202 6.56969C141.054 6.56969 140.902 6.52639 140.745 6.43978C140.587 6.34235 140.415 6.22869 140.229 6.09878C140.042 5.95805 139.826 5.80649 139.58 5.64411C139.334 5.48173 139.049 5.33559 138.725 5.20568C138.4 5.06495 138.022 4.95128 137.589 4.86468C137.167 4.76725 136.675 4.71854 136.115 4.71854C135.162 4.71854 134.287 4.90798 133.491 5.28687C132.704 5.65494 132.026 6.19621 131.456 6.91069C130.886 7.61434 130.443 8.48038 130.129 9.50879C129.814 10.5264 129.657 11.6901 129.657 13C129.657 14.3207 129.824 15.4953 130.158 16.5237C130.502 17.5521 130.964 18.4181 131.544 19.1218C132.124 19.8254 132.807 20.3667 133.594 20.7456C134.38 21.1137 135.226 21.2977 136.13 21.2977C136.67 21.2977 137.157 21.2652 137.589 21.2003C138.032 21.1353 138.435 21.0325 138.798 20.8917C139.172 20.751 139.521 20.5724 139.845 20.3559C140.18 20.1286 140.509 19.8525 140.833 19.5277C140.931 19.4303 141.035 19.3545 141.143 19.3004C141.251 19.2355 141.364 19.203 141.482 19.203Z"/>
<path d="M150.318 4.73478V11.2463H157.778V14.6076H150.318V21.249H159.783V24.7402H146.337V1.25981H159.783V4.73478H150.318Z"/>
<path d="M180.754 15.8742L178.159 8.0636C178.031 7.71719 177.899 7.30582 177.761 6.8295C177.623 6.35318 177.486 5.83897 177.348 5.28687C177.22 5.83897 177.088 6.35859 176.95 6.84574C176.812 7.32206 176.68 7.73883 176.552 8.09607L173.972 15.8742H180.754ZM187.757 24.7402H184.691C184.347 24.7402 184.066 24.6482 183.85 24.4641C183.634 24.2693 183.472 24.0311 183.364 23.7497L181.771 18.9594H172.94L171.347 23.7497C171.269 23.9986 171.116 24.226 170.89 24.4317C170.664 24.6373 170.384 24.7402 170.05 24.7402H166.953L175.343 1.25981H179.383L187.757 24.7402Z"/>
<path d="M208.896 13C208.896 14.7212 208.635 16.3018 208.114 17.7415C207.593 19.1813 206.861 20.4208 205.917 21.4601C204.974 22.4993 203.838 23.3058 202.511 23.8796C201.184 24.4533 199.71 24.7402 198.088 24.7402H189.964V1.25981H198.088C199.71 1.25981 201.184 1.5521 202.511 2.13667C203.838 2.71042 204.974 3.51691 205.917 4.55616C206.861 5.58457 207.593 6.81867 208.114 8.25846C208.635 9.69824 208.896 11.2788 208.896 13ZM204.826 13C204.826 11.7118 204.669 10.5589 204.354 9.54127C204.05 8.51286 203.602 7.64682 203.013 6.94317C202.433 6.22869 201.725 5.682 200.89 5.30311C200.064 4.92422 199.13 4.73478 198.088 4.73478H193.945V21.2652H198.088C199.13 21.2652 200.064 21.0758 200.89 20.6969C201.725 20.318 202.433 19.7767 203.013 19.0731C203.602 18.3586 204.05 17.4926 204.354 16.475C204.669 15.4465 204.826 14.2882 204.826 13Z"/>
<path d="M235.516 1.25981V24.7402H232.021V9.57375C232.021 8.96752 232.051 8.31258 232.11 7.60893L225.667 20.9405C225.362 21.5792 224.895 21.8985 224.266 21.8985H223.706C223.077 21.8985 222.61 21.5792 222.305 20.9405L215.788 7.56022C215.818 7.91745 215.842 8.26928 215.862 8.6157C215.882 8.96211 215.891 9.28146 215.891 9.57375V24.7402H212.397V1.25981H215.39C215.567 1.25981 215.719 1.26522 215.847 1.27605C215.975 1.28687 216.088 1.31394 216.186 1.35724C216.294 1.40054 216.388 1.47091 216.466 1.56833C216.555 1.66576 216.638 1.79567 216.717 1.95805L223.101 14.9973C223.268 15.3437 223.421 15.7009 223.558 16.069C223.706 16.4371 223.848 16.816 223.986 17.2057C224.124 16.8051 224.266 16.4208 224.414 16.0528C224.561 15.6739 224.718 15.3112 224.885 14.9648L231.181 1.95805C231.26 1.79567 231.343 1.66576 231.432 1.56833C231.52 1.47091 231.614 1.40054 231.712 1.35724C231.82 1.31394 231.938 1.28687 232.066 1.27605C232.194 1.26522 232.346 1.25981 232.523 1.25981H235.516Z"/>
<path d="M244.254 24.7402H240.273V1.25981H244.254V24.7402Z"/>
<path d="M267 1.25981V24.7402H264.965C264.651 24.7402 264.385 24.6861 264.169 24.5778C263.963 24.4587 263.761 24.2639 263.565 23.9932L252.433 8.33965C252.492 9.05413 252.521 9.71448 252.521 10.3207V24.7402H249.027V1.25981H251.106C251.273 1.25981 251.415 1.27063 251.533 1.29228C251.661 1.30311 251.769 1.33559 251.858 1.38971C251.956 1.43302 252.05 1.50338 252.138 1.60081C252.226 1.68742 252.325 1.80649 252.433 1.95805L263.609 17.6766C263.579 17.2977 263.555 16.9242 263.535 16.5562C263.515 16.1881 263.506 15.8471 263.506 15.5332V1.25981H267Z"/>
</mask>
<path d="M4.98091 4.73478V11.6847H12.9722V15.1759H4.98091V24.7402H1V1.25981H14.4466V4.73478H4.98091Z" fill="#FEFCFD"/>
<path d="M24.1455 12.4317C24.8925 12.4317 25.5412 12.3288 26.0917 12.1231C26.652 11.9175 27.109 11.636 27.4629 11.2788C27.8266 10.9107 28.0969 10.4777 28.2738 9.9797C28.4507 9.48173 28.5392 8.93505 28.5392 8.33965C28.5392 7.14885 28.1804 6.2341 27.4629 5.5954C26.7552 4.9567 25.669 4.63735 24.2044 4.63735H21.6685V12.4317H24.1455ZM34.3484 24.7402H30.7656C30.0873 24.7402 29.5959 24.4479 29.2912 23.8633L24.809 16.3451C24.6419 16.0636 24.4551 15.8633 24.2487 15.7442C24.0521 15.6252 23.7572 15.5656 23.364 15.5656H21.6685V24.7402H17.7023V1.25981H24.2044C25.6494 1.25981 26.8879 1.4276 27.92 1.76319C28.9619 2.08795 29.8121 2.54804 30.4707 3.14344C31.1391 3.73884 31.6306 4.45331 31.9451 5.28687C32.2596 6.10961 32.4169 7.01894 32.4169 8.01488C32.4169 8.80514 32.3088 9.5521 32.0925 10.2558C31.8861 10.9594 31.5814 11.5981 31.1784 12.1719C30.7852 12.7456 30.2938 13.249 29.704 13.682C29.1241 14.115 28.4606 14.456 27.7135 14.705C27.9691 14.8674 28.205 15.0622 28.4213 15.2896C28.6375 15.5061 28.8341 15.7659 29.011 16.069L34.3484 24.7402Z" fill="#FEFCFD"/>
<path d="M40.6317 4.73478V11.2463H46.4115C47.3397 11.2463 48.0922 11.9987 48.0922 12.9269V12.9269C48.0922 13.8551 47.3397 14.6076 46.4115 14.6076H40.6317V21.249H50.0974V24.7402H36.6508V1.25981H50.0974V4.73478H40.6317Z" fill="#FEFCFD"/>
<path d="M53.945 4.73478V11.2463H59.7248C60.653 11.2463 61.4055 11.9987 61.4055 12.9269V12.9269C61.4055 13.8551 60.653 14.6076 59.7248 14.6076H53.945V21.249H63.4107V24.7402H49.9641V1.25981H63.4107V4.73478H53.945Z" fill="#FEFCFD"/>
<path d="M80.8136 21.1353V24.7402H68.3254V1.25981H72.2915V21.1353H80.8136Z" fill="#FEFCFD"/>
<path d="M94.9099 15.8742L92.3149 8.0636C92.1872 7.71719 92.0545 7.30582 91.9168 6.8295C91.7792 6.35318 91.6416 5.83897 91.504 5.28687C91.3762 5.83897 91.2435 6.35859 91.1059 6.84574C90.9683 7.32206 90.8356 7.73883 90.7078 8.09607L88.1276 15.8742H94.9099ZM101.913 24.7402H98.8466C98.5025 24.7402 98.2224 24.6482 98.0062 24.4641C97.7899 24.2693 97.6277 24.0311 97.5196 23.7497L95.9272 18.9594H87.0955L85.5032 23.7497C85.4245 23.9986 85.2722 24.226 85.0461 24.4317C84.82 24.6373 84.5399 24.7402 84.2057 24.7402H81.1094L89.4988 1.25981H93.5387L101.913 24.7402Z" fill="#FEFCFD"/>
<path d="M122.093 1.25981V24.7402H120.059C119.744 24.7402 119.479 24.6861 119.262 24.5778C119.056 24.4587 118.854 24.2639 118.658 23.9932L107.526 8.33965C107.585 9.05413 107.614 9.71448 107.614 10.3207V24.7402H104.12V1.25981H106.199C106.366 1.25981 106.509 1.27063 106.627 1.29228C106.754 1.30311 106.863 1.33559 106.951 1.38971C107.049 1.43302 107.143 1.50338 107.231 1.60081C107.32 1.68742 107.418 1.80649 107.526 1.95805L118.702 17.6766C118.673 17.2977 118.648 16.9242 118.628 16.5562C118.609 16.1881 118.599 15.8471 118.599 15.5332V1.25981H122.093Z" fill="#FEFCFD"/>
<path d="M141.482 19.203C141.698 19.203 141.89 19.295 142.057 19.479L143.62 21.3464C142.755 22.5264 141.688 23.4303 140.42 24.0582C139.162 24.6861 137.648 25 135.879 25C134.297 25 132.871 24.7023 131.603 24.1069C130.345 23.5115 129.269 22.6834 128.374 21.6225C127.48 20.5616 126.792 19.295 126.31 17.8227C125.838 16.3505 125.603 14.7429 125.603 13C125.603 11.2355 125.858 9.62246 126.369 8.16103C126.88 6.68877 127.598 5.42219 128.522 4.3613C129.456 3.3004 130.566 2.47767 131.854 1.8931C133.142 1.2977 134.567 1 136.13 1C137.683 1 139.059 1.28146 140.258 1.84438C141.467 2.40731 142.494 3.14344 143.34 4.05277L142.013 6.08254C141.934 6.21245 141.831 6.32612 141.703 6.42354C141.585 6.52097 141.418 6.56969 141.202 6.56969C141.054 6.56969 140.902 6.52639 140.745 6.43978C140.587 6.34235 140.415 6.22869 140.229 6.09878C140.042 5.95805 139.826 5.80649 139.58 5.64411C139.334 5.48173 139.049 5.33559 138.725 5.20568C138.4 5.06495 138.022 4.95128 137.589 4.86468C137.167 4.76725 136.675 4.71854 136.115 4.71854C135.162 4.71854 134.287 4.90798 133.491 5.28687C132.704 5.65494 132.026 6.19621 131.456 6.91069C130.886 7.61434 130.443 8.48038 130.129 9.50879C129.814 10.5264 129.657 11.6901 129.657 13C129.657 14.3207 129.824 15.4953 130.158 16.5237C130.502 17.5521 130.964 18.4181 131.544 19.1218C132.124 19.8254 132.807 20.3667 133.594 20.7456C134.38 21.1137 135.226 21.2977 136.13 21.2977C136.67 21.2977 137.157 21.2652 137.589 21.2003C138.032 21.1353 138.435 21.0325 138.798 20.8917C139.172 20.751 139.521 20.5724 139.845 20.3559C140.18 20.1286 140.509 19.8525 140.833 19.5277C140.931 19.4303 141.035 19.3545 141.143 19.3004C141.251 19.2355 141.364 19.203 141.482 19.203Z" fill="#FEFCFD"/>
<path d="M150.318 4.73478V11.2463H157.778V14.6076H150.318V21.249H159.783V24.7402H146.337V1.25981H159.783V4.73478H150.318Z" fill="#FEFCFD"/>
<path d="M180.754 15.8742L178.159 8.0636C178.031 7.71719 177.899 7.30582 177.761 6.8295C177.623 6.35318 177.486 5.83897 177.348 5.28687C177.22 5.83897 177.088 6.35859 176.95 6.84574C176.812 7.32206 176.68 7.73883 176.552 8.09607L173.972 15.8742H180.754ZM187.757 24.7402H184.691C184.347 24.7402 184.066 24.6482 183.85 24.4641C183.634 24.2693 183.472 24.0311 183.364 23.7497L181.771 18.9594H172.94L171.347 23.7497C171.269 23.9986 171.116 24.226 170.89 24.4317C170.664 24.6373 170.384 24.7402 170.05 24.7402H166.953L175.343 1.25981H179.383L187.757 24.7402Z" fill="#FEFCFD"/>
<path d="M208.896 13C208.896 14.7212 208.635 16.3018 208.114 17.7415C207.593 19.1813 206.861 20.4208 205.917 21.4601C204.974 22.4993 203.838 23.3058 202.511 23.8796C201.184 24.4533 199.71 24.7402 198.088 24.7402H189.964V1.25981H198.088C199.71 1.25981 201.184 1.5521 202.511 2.13667C203.838 2.71042 204.974 3.51691 205.917 4.55616C206.861 5.58457 207.593 6.81867 208.114 8.25846C208.635 9.69824 208.896 11.2788 208.896 13ZM204.826 13C204.826 11.7118 204.669 10.5589 204.354 9.54127C204.05 8.51286 203.602 7.64682 203.013 6.94317C202.433 6.22869 201.725 5.682 200.89 5.30311C200.064 4.92422 199.13 4.73478 198.088 4.73478H193.945V21.2652H198.088C199.13 21.2652 200.064 21.0758 200.89 20.6969C201.725 20.318 202.433 19.7767 203.013 19.0731C203.602 18.3586 204.05 17.4926 204.354 16.475C204.669 15.4465 204.826 14.2882 204.826 13Z" fill="#FEFCFD"/>
<path d="M235.516 1.25981V24.7402H232.021V9.57375C232.021 8.96752 232.051 8.31258 232.11 7.60893L225.667 20.9405C225.362 21.5792 224.895 21.8985 224.266 21.8985H223.706C223.077 21.8985 222.61 21.5792 222.305 20.9405L215.788 7.56022C215.818 7.91745 215.842 8.26928 215.862 8.6157C215.882 8.96211 215.891 9.28146 215.891 9.57375V24.7402H212.397V1.25981H215.39C215.567 1.25981 215.719 1.26522 215.847 1.27605C215.975 1.28687 216.088 1.31394 216.186 1.35724C216.294 1.40054 216.388 1.47091 216.466 1.56833C216.555 1.66576 216.638 1.79567 216.717 1.95805L223.101 14.9973C223.268 15.3437 223.421 15.7009 223.558 16.069C223.706 16.4371 223.848 16.816 223.986 17.2057C224.124 16.8051 224.266 16.4208 224.414 16.0528C224.561 15.6739 224.718 15.3112 224.885 14.9648L231.181 1.95805C231.26 1.79567 231.343 1.66576 231.432 1.56833C231.52 1.47091 231.614 1.40054 231.712 1.35724C231.82 1.31394 231.938 1.28687 232.066 1.27605C232.194 1.26522 232.346 1.25981 232.523 1.25981H235.516Z" fill="#FEFCFD"/>
<path d="M244.254 24.7402H240.273V1.25981H244.254V24.7402Z" fill="#FEFCFD"/>
<path d="M267 1.25981V24.7402H264.965C264.651 24.7402 264.385 24.6861 264.169 24.5778C263.963 24.4587 263.761 24.2639 263.565 23.9932L252.433 8.33965C252.492 9.05413 252.521 9.71448 252.521 10.3207V24.7402H249.027V1.25981H251.106C251.273 1.25981 251.415 1.27063 251.533 1.29228C251.661 1.30311 251.769 1.33559 251.858 1.38971C251.956 1.43302 252.05 1.50338 252.138 1.60081C252.226 1.68742 252.325 1.80649 252.433 1.95805L263.609 17.6766C263.579 17.2977 263.555 16.9242 263.535 16.5562C263.515 16.1881 263.506 15.8471 263.506 15.5332V1.25981H267Z" fill="#FEFCFD"/>
<path d="M4.98091 4.73478V11.6847H12.9722V15.1759H4.98091V24.7402H1V1.25981H14.4466V4.73478H4.98091Z" stroke="black" stroke-width="2" mask="url(#path-1-outside-1_801_2074)"/>
<path d="M24.1455 12.4317C24.8925 12.4317 25.5412 12.3288 26.0917 12.1231C26.652 11.9175 27.109 11.636 27.4629 11.2788C27.8266 10.9107 28.0969 10.4777 28.2738 9.9797C28.4507 9.48173 28.5392 8.93505 28.5392 8.33965C28.5392 7.14885 28.1804 6.2341 27.4629 5.5954C26.7552 4.9567 25.669 4.63735 24.2044 4.63735H21.6685V12.4317H24.1455ZM34.3484 24.7402H30.7656C30.0873 24.7402 29.5959 24.4479 29.2912 23.8633L24.809 16.3451C24.6419 16.0636 24.4551 15.8633 24.2487 15.7442C24.0521 15.6252 23.7572 15.5656 23.364 15.5656H21.6685V24.7402H17.7023V1.25981H24.2044C25.6494 1.25981 26.8879 1.4276 27.92 1.76319C28.9619 2.08795 29.8121 2.54804 30.4707 3.14344C31.1391 3.73884 31.6306 4.45331 31.9451 5.28687C32.2596 6.10961 32.4169 7.01894 32.4169 8.01488C32.4169 8.80514 32.3088 9.5521 32.0925 10.2558C31.8861 10.9594 31.5814 11.5981 31.1784 12.1719C30.7852 12.7456 30.2938 13.249 29.704 13.682C29.1241 14.115 28.4606 14.456 27.7135 14.705C27.9691 14.8674 28.205 15.0622 28.4213 15.2896C28.6375 15.5061 28.8341 15.7659 29.011 16.069L34.3484 24.7402Z" stroke="black" stroke-width="2" mask="url(#path-1-outside-1_801_2074)"/>
<path d="M40.6317 4.73478V11.2463H46.4115C47.3397 11.2463 48.0922 11.9987 48.0922 12.9269V12.9269C48.0922 13.8551 47.3397 14.6076 46.4115 14.6076H40.6317V21.249H50.0974V24.7402H36.6508V1.25981H50.0974V4.73478H40.6317Z" stroke="black" stroke-width="2" mask="url(#path-1-outside-1_801_2074)"/>
<path d="M53.945 4.73478V11.2463H59.7248C60.653 11.2463 61.4055 11.9987 61.4055 12.9269V12.9269C61.4055 13.8551 60.653 14.6076 59.7248 14.6076H53.945V21.249H63.4107V24.7402H49.9641V1.25981H63.4107V4.73478H53.945Z" stroke="black" stroke-width="2" mask="url(#path-1-outside-1_801_2074)"/>
<path d="M80.8136 21.1353V24.7402H68.3254V1.25981H72.2915V21.1353H80.8136Z" stroke="black" stroke-width="2" mask="url(#path-1-outside-1_801_2074)"/>
<path d="M94.9099 15.8742L92.3149 8.0636C92.1872 7.71719 92.0545 7.30582 91.9168 6.8295C91.7792 6.35318 91.6416 5.83897 91.504 5.28687C91.3762 5.83897 91.2435 6.35859 91.1059 6.84574C90.9683 7.32206 90.8356 7.73883 90.7078 8.09607L88.1276 15.8742H94.9099ZM101.913 24.7402H98.8466C98.5025 24.7402 98.2224 24.6482 98.0062 24.4641C97.7899 24.2693 97.6277 24.0311 97.5196 23.7497L95.9272 18.9594H87.0955L85.5032 23.7497C85.4245 23.9986 85.2722 24.226 85.0461 24.4317C84.82 24.6373 84.5399 24.7402 84.2057 24.7402H81.1094L89.4988 1.25981H93.5387L101.913 24.7402Z" stroke="black" stroke-width="2" mask="url(#path-1-outside-1_801_2074)"/>
<path d="M122.093 1.25981V24.7402H120.059C119.744 24.7402 119.479 24.6861 119.262 24.5778C119.056 24.4587 118.854 24.2639 118.658 23.9932L107.526 8.33965C107.585 9.05413 107.614 9.71448 107.614 10.3207V24.7402H104.12V1.25981H106.199C106.366 1.25981 106.509 1.27063 106.627 1.29228C106.754 1.30311 106.863 1.33559 106.951 1.38971C107.049 1.43302 107.143 1.50338 107.231 1.60081C107.32 1.68742 107.418 1.80649 107.526 1.95805L118.702 17.6766C118.673 17.2977 118.648 16.9242 118.628 16.5562C118.609 16.1881 118.599 15.8471 118.599 15.5332V1.25981H122.093Z" stroke="black" stroke-width="2" mask="url(#path-1-outside-1_801_2074)"/>
<path d="M141.482 19.203C141.698 19.203 141.89 19.295 142.057 19.479L143.62 21.3464C142.755 22.5264 141.688 23.4303 140.42 24.0582C139.162 24.6861 137.648 25 135.879 25C134.297 25 132.871 24.7023 131.603 24.1069C130.345 23.5115 129.269 22.6834 128.374 21.6225C127.48 20.5616 126.792 19.295 126.31 17.8227C125.838 16.3505 125.603 14.7429 125.603 13C125.603 11.2355 125.858 9.62246 126.369 8.16103C126.88 6.68877 127.598 5.42219 128.522 4.3613C129.456 3.3004 130.566 2.47767 131.854 1.8931C133.142 1.2977 134.567 1 136.13 1C137.683 1 139.059 1.28146 140.258 1.84438C141.467 2.40731 142.494 3.14344 143.34 4.05277L142.013 6.08254C141.934 6.21245 141.831 6.32612 141.703 6.42354C141.585 6.52097 141.418 6.56969 141.202 6.56969C141.054 6.56969 140.902 6.52639 140.745 6.43978C140.587 6.34235 140.415 6.22869 140.229 6.09878C140.042 5.95805 139.826 5.80649 139.58 5.64411C139.334 5.48173 139.049 5.33559 138.725 5.20568C138.4 5.06495 138.022 4.95128 137.589 4.86468C137.167 4.76725 136.675 4.71854 136.115 4.71854C135.162 4.71854 134.287 4.90798 133.491 5.28687C132.704 5.65494 132.026 6.19621 131.456 6.91069C130.886 7.61434 130.443 8.48038 130.129 9.50879C129.814 10.5264 129.657 11.6901 129.657 13C129.657 14.3207 129.824 15.4953 130.158 16.5237C130.502 17.5521 130.964 18.4181 131.544 19.1218C132.124 19.8254 132.807 20.3667 133.594 20.7456C134.38 21.1137 135.226 21.2977 136.13 21.2977C136.67 21.2977 137.157 21.2652 137.589 21.2003C138.032 21.1353 138.435 21.0325 138.798 20.8917C139.172 20.751 139.521 20.5724 139.845 20.3559C140.18 20.1286 140.509 19.8525 140.833 19.5277C140.931 19.4303 141.035 19.3545 141.143 19.3004C141.251 19.2355 141.364 19.203 141.482 19.203Z" stroke="black" stroke-width="2" mask="url(#path-1-outside-1_801_2074)"/>
<path d="M150.318 4.73478V11.2463H157.778V14.6076H150.318V21.249H159.783V24.7402H146.337V1.25981H159.783V4.73478H150.318Z" stroke="black" stroke-width="2" mask="url(#path-1-outside-1_801_2074)"/>
<path d="M180.754 15.8742L178.159 8.0636C178.031 7.71719 177.899 7.30582 177.761 6.8295C177.623 6.35318 177.486 5.83897 177.348 5.28687C177.22 5.83897 177.088 6.35859 176.95 6.84574C176.812 7.32206 176.68 7.73883 176.552 8.09607L173.972 15.8742H180.754ZM187.757 24.7402H184.691C184.347 24.7402 184.066 24.6482 183.85 24.4641C183.634 24.2693 183.472 24.0311 183.364 23.7497L181.771 18.9594H172.94L171.347 23.7497C171.269 23.9986 171.116 24.226 170.89 24.4317C170.664 24.6373 170.384 24.7402 170.05 24.7402H166.953L175.343 1.25981H179.383L187.757 24.7402Z" stroke="black" stroke-width="2" mask="url(#path-1-outside-1_801_2074)"/>
<path d="M208.896 13C208.896 14.7212 208.635 16.3018 208.114 17.7415C207.593 19.1813 206.861 20.4208 205.917 21.4601C204.974 22.4993 203.838 23.3058 202.511 23.8796C201.184 24.4533 199.71 24.7402 198.088 24.7402H189.964V1.25981H198.088C199.71 1.25981 201.184 1.5521 202.511 2.13667C203.838 2.71042 204.974 3.51691 205.917 4.55616C206.861 5.58457 207.593 6.81867 208.114 8.25846C208.635 9.69824 208.896 11.2788 208.896 13ZM204.826 13C204.826 11.7118 204.669 10.5589 204.354 9.54127C204.05 8.51286 203.602 7.64682 203.013 6.94317C202.433 6.22869 201.725 5.682 200.89 5.30311C200.064 4.92422 199.13 4.73478 198.088 4.73478H193.945V21.2652H198.088C199.13 21.2652 200.064 21.0758 200.89 20.6969C201.725 20.318 202.433 19.7767 203.013 19.0731C203.602 18.3586 204.05 17.4926 204.354 16.475C204.669 15.4465 204.826 14.2882 204.826 13Z" stroke="black" stroke-width="2" mask="url(#path-1-outside-1_801_2074)"/>
<path d="M235.516 1.25981V24.7402H232.021V9.57375C232.021 8.96752 232.051 8.31258 232.11 7.60893L225.667 20.9405C225.362 21.5792 224.895 21.8985 224.266 21.8985H223.706C223.077 21.8985 222.61 21.5792 222.305 20.9405L215.788 7.56022C215.818 7.91745 215.842 8.26928 215.862 8.6157C215.882 8.96211 215.891 9.28146 215.891 9.57375V24.7402H212.397V1.25981H215.39C215.567 1.25981 215.719 1.26522 215.847 1.27605C215.975 1.28687 216.088 1.31394 216.186 1.35724C216.294 1.40054 216.388 1.47091 216.466 1.56833C216.555 1.66576 216.638 1.79567 216.717 1.95805L223.101 14.9973C223.268 15.3437 223.421 15.7009 223.558 16.069C223.706 16.4371 223.848 16.816 223.986 17.2057C224.124 16.8051 224.266 16.4208 224.414 16.0528C224.561 15.6739 224.718 15.3112 224.885 14.9648L231.181 1.95805C231.26 1.79567 231.343 1.66576 231.432 1.56833C231.52 1.47091 231.614 1.40054 231.712 1.35724C231.82 1.31394 231.938 1.28687 232.066 1.27605C232.194 1.26522 232.346 1.25981 232.523 1.25981H235.516Z" stroke="black" stroke-width="2" mask="url(#path-1-outside-1_801_2074)"/>
<path d="M244.254 24.7402H240.273V1.25981H244.254V24.7402Z" stroke="black" stroke-width="2" mask="url(#path-1-outside-1_801_2074)"/>
<path d="M267 1.25981V24.7402H264.965C264.651 24.7402 264.385 24.6861 264.169 24.5778C263.963 24.4587 263.761 24.2639 263.565 23.9932L252.433 8.33965C252.492 9.05413 252.521 9.71448 252.521 10.3207V24.7402H249.027V1.25981H251.106C251.273 1.25981 251.415 1.27063 251.533 1.29228C251.661 1.30311 251.769 1.33559 251.858 1.38971C251.956 1.43302 252.05 1.50338 252.138 1.60081C252.226 1.68742 252.325 1.80649 252.433 1.95805L263.609 17.6766C263.579 17.2977 263.555 16.9242 263.535 16.5562C263.515 16.1881 263.506 15.8471 263.506 15.5332V1.25981H267Z" stroke="black" stroke-width="2" mask="url(#path-1-outside-1_801_2074)"/>
</svg>
